<?xml version="1.0"?>
<svg xmlns:rdf="http://www.w3.org/1999/02/22-rdf-syntax-ns#" xmlns="http://www.w3.org/2000/svg" xmlns:cc="http://creativecommons.org/ns#" xmlns:dc="http://purl.org/dc/elements/1.1/" id="svg2" xml:space="preserve" viewBox="0 0 411.54 1414.8" version="1.1">
  <defs id="defs6">
    <clipPath id="clipPath16">
      <path id="path18" d="m0 1166h857v-1166h-857v1166z"/>
    </clipPath>
  </defs>
  <g id="g10" transform="matrix(1.25 0 0 -1.25 0 1414.8)">
    <g id="g12">
      <g id="g14" clip-path="url(#clipPath16)">
        <g id="g44" transform="translate(136.21 1121.6)">
          <path id="path46" d="m0 0c13.736 7.161 29.358 10.623 44.827 10.089 16-0.522 31.518-5.323 46.182-11.489-2.882-3.335-5.684-6.77-8.012-10.519 2.734-4.846 6.822-8.788 10.129-13.25 1.948-1.992 3.212-4.879 5.774-6.143 22.41-6.166 44.814-12.41 67.226-18.581 4.543-1.566 8.29-4.679 12.348-7.152 0.634-2.535 0.959-5.127 1.164-7.73 4.528-37.387 8.607-74.838 13.335-112.19-1.655-0.355-3.306-0.725-4.956-1.075 0.018-0.656 0.054-1.966 0.072-2.622 1.198-0.32 2.407-0.645 3.618-0.961-2.288-23.267-5.059-46.493-7.499-69.749-1.382-9.678-1.616-19.511-3.434-29.125-15.117-5.302-29.932-11.468-44.998-16.93 1.274-15.029 6.077-29.47 10.709-43.731 10.593-31.234 23.322-61.682 34.801-92.592 2.639-8.205 5.997-16.349 6.741-25.007-0.639-5.469-5.625-8.596-9.689-11.539-5.38-3.422-10.308-7.5-15.024-11.776-13.412-12.882-19.439-31.387-22.039-49.368-0.937-8.368-2.167-16.745-1.803-25.189 0.585-3.719-3.334-6.218-2.87-9.923 0.263-4.44-1.236-8.669-1.809-13.025-4.542-31.369-9.329-62.7-13.846-94.072-0.546-3.782-3.51-6.577-4.87-10.057-0.566-2.393 0.387-4.768 1.049-7.048-2.464-15.558-4.02-31.248-6.091-46.865-3.119-24.992-6.278-49.981-9.349-74.98 0.466-4.064 0.65-8.147 0.811-12.242 1.806-11.208 5.26-22.221 11.034-32.046 6.992-13.684 16.099-26.114 23.682-39.462 13.347-22.697 20.913-49.073 20.084-75.478 7.834-9.945 15.498-20.024 23.277-30.016-2.414-1.503-4.884-2.928-7.478-4.105-5.055 0.091-10.109 0.06-15.162 0.026 0.57-4.273 0.799-8.602 1.736-12.827 2.19-11.193 8.053-21.222 10.71-32.286 3.122-12.28 2.742-25.051 2.637-37.628-0.688-9.911-5.215-19.906-13.222-25.994-2.569-1.905-5.611-3.522-8.899-3.429-9.147 0.033-18.294-0.037-27.44 0.063 0.507 3.423 0.99 6.861 1.922 10.189 0.87 3.671 5.914 4.95 5.543 9.155-0.009 6.393 0.246 12.805-0.165 19.18-0.373 6.683-4.468 12.178-7.069 18.103-1.485 3.148-2.311 6.561-3.837 9.676-4.847-0.727-9.638-1.795-14.415-2.879-4.926 8.882-8.562 18.418-13.305 27.393-1.354-0.385-2.715-0.746-4.075-1.122-0.151-8.779 0.514-17.604-0.698-26.336-0.192-14.986 0.552-30.03-1.371-44.927-0.252-2.128-1.592-3.882-2.586-5.727-5.075-2.373-10.775-0.793-16.103-1.898-0.029 8.788 0.187 17.58-0.121 26.358-3.68 2.034-6.585 5.232-10.291 7.171-3.385-0.774-6.143-3.141-9.005-5.002-13.867-9.471-21.906-24.915-35.016-35.211-5.573-4.371-12.482-6.515-19.369-7.726h-29.397c-9.006 1.488-17.13 5.878-24.182 11.531 4.349 4.155 8.331 8.731 13.239 12.254 8.72 6.19 17.747 12.027 25.567 19.369 6.651 7.063 11.711 15.82 13.302 25.475 1.647 11.728 2.328 23.556 3.2 35.342-0.01 4.675-0.2 9.366 0.573 13.99 0.674 14.662-0.593 29.4 0.795 44.026 0.021 26.018-0.029 52.038 0.026 78.056 0.013 1.662-0.08 3.352-0.916 4.81-10.845 21.501-21.528 43.085-32.345 64.6-6.153 13.46-13.047 26.623-18.017 40.594-5.632 16.781-9.612 34.053-13.311 51.342-4.626 22.376-8.266 44.988-10.081 67.77-0.669 5.264-0.239 10.58-0.343 15.864 0.114 7.014-0.435 14.068 0.682 21.023 1.343 20.496-7.969 39.739-8.845 60.025-0.642 4.588-0.03 9.256-0.904 13.817-0.45 12.841-0.771 25.97-4.755 38.314-2.581 8.296-8.053 15.898-15.805 20.04-8.564 4.647-18.534 6.255-28.184 6.249v1.923c3.031 8.007 6.13 16.004 8.753 24.154 2.546 1.318 5.103 2.613 7.677 3.871-1.587 2.303-2.789 4.83-3.703 7.463 1.195 5.563 2.553 11.087 4.038 16.577 5.358 19.799 11.114 39.707 20.598 57.984 3.381 7.482 8.41 14.166 14.401 19.748 3.73 9.5 5.996 19.503 9.689 29.016-4.74 0.095-9.501-0.263-14.225 0.183-10.289 2.134-20.091 6.262-29.305 11.254-3.297 34.528-5.934 69.149-9.259 103.65 0.714 5.153 4.836 8.567 7.799 12.48-0.145 6.408 0.19 12.825-0.15 19.224-0.578 3.713-0.749 7.466-0.618 11.218 2.985 3.594 5.571 7.497 8.565 11.082-0.457 22.256 2.664 45.498 14.386 64.85 3.661 6.48 9.154 11.592 14.44 16.718 11.899 9.999 26.643 16.151 41.72 19.497 2.839 2.876 5.249 6.129 7.95 9.127-3.022-7.915-4.97-16.155-7.222-24.293-4.507-6.4-9.59-12.412-14.339-18.647 8.132 2.241 16.751 2.998 24.488 6.503 3.919 1.63 6.252 5.265 9.294 7.968 4.42 2.117 9.041-0.936 12.755-3.192 4.455-2.939 9.474-6.417 10.588-12.014 8.032-26.805 16.011-54.207 16.068-82.415 4.484 7.441 4.637 16.272 6.284 24.563 2.615 15.077 6.022 30.327 13.326 43.911 13.132 8.557 25.822 17.794 38.903 26.433-0.58 1.41-1.177 2.815-1.75 4.221 15.089-1.715 30.278-2.533 45.406-3.874-6.348 9.113-12.003 18.685-18.39 27.77-7.883 8.901-15.402 18.136-22.925 27.346-6.076 0.013-12.151 0.041-18.224-0.018 0.417-2.69 0.877-5.374 1.182-8.082-0.772 1.715-1.013 3.708-2.125 5.244-9.306 7.168-21.43 11.043-33.147 8.875-11.854-1.801-21.967-8.764-31.253-15.904-1.089-2.815-1.462-5.826-1.935-8.787 6.755 5.214 13.716 10.26 21.424 13.987 10.654 4.908 23.655 6.044 34.322 0.571 4.667-2.187 8.505-5.666 12.564-8.766 0.084 2.136 0.161 4.277 0.421 6.4 0.143-4.131 0.654-8.234 0.832-12.361-0.317-8.976-2.849-18.381-9.258-24.976-3.709-3.603-7.163-7.492-11.231-10.704-7.674-6.392-14.024-15.09-15.233-25.229-0.144-8.488 0.018-16.981-0.053-25.471-4.655 1.463-8.682 4.728-11.148 8.921-3.936 6.866-3.769 14.949-4.556 22.577 0.075 8.289-0.448 16.731-2.993 24.671-2.584 7.921-8.956 13.581-14.104 19.817-4.665 7.623-0.509 16.583 1.367 24.408 0.567 1.645-1.28 2.667-1.918 3.952-5.524-5.521-11.528-10.527-17.292-15.787-2.945-2.69-4.675-6.347-6.581-9.778-1.478 1.255-2.974 2.488-4.49 3.695 1.72 1.218 3.429 2.453 5.162 3.653-1.591 2.596-3.011 5.291-4.318 8.039 10.009 8.997 21.033 17.578 33.53 23.47z" stroke="#010101" stroke-miterlimit="10" stroke-width=".1" fill="none"/>
        </g>
        <g id="g48" transform="translate(136.21 1121.6)">
          <path id="path50" d="m0 0c13.736 7.161 29.358 10.623 44.827 10.089 16-0.522 31.518-5.323 46.182-11.489-2.882-3.335-5.684-6.77-8.012-10.519 2.734-4.846 6.822-8.788 10.129-13.25 1.948-1.992 3.212-4.879 5.774-6.143 22.41-6.166 44.814-12.41 67.226-18.581 4.543-1.566 8.29-4.679 12.348-7.152 0.634-2.535 0.959-5.127 1.164-7.73 4.528-37.387 8.607-74.838 13.335-112.19-1.655-0.355-3.306-0.725-4.956-1.075 0.018-0.656 0.054-1.966 0.072-2.622 1.198-0.32 2.407-0.645 3.618-0.961-2.288-23.267-5.059-46.493-7.499-69.749-1.382-9.678-1.616-19.511-3.434-29.125-15.117-5.302-29.932-11.468-44.998-16.93 1.274-15.029 6.077-29.47 10.709-43.731 10.593-31.234 23.322-61.682 34.801-92.592 2.639-8.205 5.997-16.349 6.741-25.007-0.639-5.469-5.625-8.596-9.689-11.539-5.38-3.422-10.308-7.5-15.024-11.776-13.412-12.882-19.439-31.387-22.039-49.368-0.937-8.368-2.167-16.745-1.803-25.189 0.585-3.719-3.334-6.218-2.87-9.923 0.263-4.44-1.236-8.669-1.809-13.025-4.542-31.369-9.329-62.7-13.846-94.072-0.546-3.782-3.51-6.577-4.87-10.057-0.566-2.393 0.387-4.768 1.049-7.048-2.464-15.558-4.02-31.248-6.091-46.865-3.119-24.992-6.278-49.981-9.349-74.98 0.466-4.064 0.65-8.147 0.811-12.242 1.806-11.208 5.26-22.221 11.034-32.046 6.992-13.684 16.099-26.114 23.682-39.462 13.347-22.697 20.913-49.073 20.084-75.478 7.834-9.945 15.498-20.024 23.277-30.016-2.414-1.503-4.884-2.928-7.478-4.105-5.055 0.091-10.109 0.06-15.162 0.026 0.57-4.273 0.799-8.602 1.736-12.827 2.19-11.193 8.053-21.222 10.71-32.286 3.122-12.28 2.742-25.051 2.637-37.628-0.688-9.911-5.215-19.906-13.222-25.994-2.569-1.905-5.611-3.522-8.899-3.429-9.147 0.033-18.294-0.037-27.44 0.063 0.507 3.423 0.99 6.861 1.922 10.189 0.87 3.671 5.914 4.95 5.543 9.155-0.009 6.393 0.246 12.805-0.165 19.18-0.373 6.683-4.468 12.178-7.069 18.103-1.485 3.148-2.311 6.561-3.837 9.676-4.847-0.727-9.638-1.795-14.415-2.879-4.926 8.882-8.562 18.418-13.305 27.393-1.354-0.385-2.715-0.746-4.075-1.122-0.151-8.779 0.514-17.604-0.698-26.336-0.192-14.986 0.552-30.03-1.371-44.927-0.252-2.128-1.592-3.882-2.586-5.727-5.075-2.373-10.775-0.793-16.103-1.898-0.029 8.788 0.187 17.58-0.121 26.358-3.68 2.034-6.585 5.232-10.291 7.171-3.385-0.774-6.143-3.141-9.005-5.002-13.867-9.471-21.906-24.915-35.016-35.211-5.573-4.371-12.482-6.515-19.369-7.726h-29.397c-9.006 1.488-17.13 5.878-24.182 11.531 4.349 4.155 8.331 8.731 13.239 12.254 8.72 6.19 17.747 12.027 25.567 19.369 6.651 7.063 11.711 15.82 13.302 25.475 1.647 11.728 2.328 23.556 3.2 35.342-0.01 4.675-0.2 9.366 0.573 13.99 0.674 14.662-0.593 29.4 0.795 44.026 0.021 26.018-0.029 52.038 0.026 78.056 0.013 1.662-0.08 3.352-0.916 4.81-10.845 21.501-21.528 43.085-32.345 64.6-6.153 13.46-13.047 26.623-18.017 40.594-5.632 16.781-9.612 34.053-13.311 51.342-4.626 22.376-8.266 44.988-10.081 67.77-0.669 5.264-0.239 10.58-0.343 15.864 0.114 7.014-0.435 14.068 0.682 21.023 1.343 20.496-7.969 39.739-8.845 60.025-0.642 4.588-0.03 9.256-0.904 13.817-0.45 12.841-0.771 25.97-4.755 38.314-2.581 8.296-8.053 15.898-15.805 20.04-8.564 4.647-18.534 6.255-28.184 6.249v1.923c3.031 8.007 6.13 16.004 8.753 24.154 2.546 1.318 5.103 2.613 7.677 3.871-1.587 2.303-2.789 4.83-3.703 7.463 1.195 5.563 2.553 11.087 4.038 16.577 5.358 19.799 11.114 39.707 20.598 57.984 3.381 7.482 8.41 14.166 14.401 19.748 3.73 9.5 5.996 19.503 9.689 29.016-4.74 0.095-9.501-0.263-14.225 0.183-10.289 2.134-20.091 6.262-29.305 11.254-3.297 34.528-5.934 69.149-9.259 103.65 0.714 5.153 4.836 8.567 7.799 12.48-0.145 6.408 0.19 12.825-0.15 19.224-0.578 3.713-0.749 7.466-0.618 11.218 2.985 3.594 5.571 7.497 8.565 11.082-0.457 22.256 2.664 45.498 14.386 64.85 3.661 6.48 9.154 11.592 14.44 16.718 11.899 9.999 26.643 16.151 41.72 19.497 2.839 2.876 5.249 6.129 7.95 9.127-3.022-7.915-4.97-16.155-7.222-24.293-4.507-6.4-9.59-12.412-14.339-18.647 8.132 2.241 16.751 2.998 24.488 6.503 3.919 1.63 6.252 5.265 9.294 7.968 4.42 2.117 9.041-0.936 12.755-3.192 4.455-2.939 9.474-6.417 10.588-12.014 8.032-26.805 16.011-54.207 16.068-82.415 4.484 7.441 4.637 16.272 6.284 24.563 2.615 15.077 6.022 30.327 13.326 43.911 13.132 8.557 25.822 17.794 38.903 26.433-0.58 1.41-1.177 2.815-1.75 4.221 15.089-1.715 30.278-2.533 45.406-3.874-6.348 9.113-12.003 18.685-18.39 27.77-7.883 8.901-15.402 18.136-22.925 27.346-6.076 0.013-12.151 0.041-18.224-0.018 0.417-2.69 0.877-5.374 1.182-8.082-0.772 1.715-1.013 3.708-2.125 5.244-9.306 7.168-21.43 11.043-33.147 8.875-11.854-1.801-21.967-8.764-31.253-15.904-1.089-2.815-1.462-5.826-1.935-8.787 6.755 5.214 13.716 10.26 21.424 13.987 10.654 4.908 23.655 6.044 34.322 0.571 4.667-2.187 8.505-5.666 12.564-8.766 0.084 2.136 0.161 4.277 0.421 6.4 0.143-4.131 0.654-8.234 0.832-12.361-0.317-8.976-2.849-18.381-9.258-24.976-3.709-3.603-7.163-7.492-11.231-10.704-7.674-6.392-14.024-15.09-15.233-25.229-0.144-8.488 0.018-16.981-0.053-25.471-4.655 1.463-8.682 4.728-11.148 8.921-3.936 6.866-3.769 14.949-4.556 22.577 0.075 8.289-0.448 16.731-2.993 24.671-2.584 7.921-8.956 13.581-14.104 19.817-4.665 7.623-0.509 16.583 1.367 24.408 0.567 1.645-1.28 2.667-1.918 3.952-5.524-5.521-11.528-10.527-17.292-15.787-2.945-2.69-4.675-6.347-6.581-9.778-1.478 1.255-2.974 2.488-4.49 3.695 1.72 1.218 3.429 2.453 5.162 3.653-1.591 2.596-3.011 5.291-4.318 8.039 10.009 8.997 21.033 17.578 33.53 23.47" fill="#010101"/>
        </g>
      </g>
    </g>
  </g>
<metadata><rdf:RDF><cc:Work><dc:format>image/svg+xml</dc:format><dc:type rdf:resource="http://purl.org/dc/dcmitype/StillImage"/><cc:license rdf:resource="http://creativecommons.org/licenses/publicdomain/"/><dc:publisher><cc:Agent rdf:about="http://openclipart.org/"><dc:title>Openclipart</dc:title></cc:Agent></dc:publisher></cc:Work><cc:License rdf:about="http://creativecommons.org/licenses/publicdomain/"><cc:permits rdf:resource="http://creativecommons.org/ns#Reproduction"/><cc:permits rdf:resource="http://creativecommons.org/ns#Distribution"/><cc:permits rdf:resource="http://creativecommons.org/ns#DerivativeWorks"/></cc:License></rdf:RDF></metadata></svg>
